<svg width="500" height="500" viewBox="0 0 500 500" fill="none" xmlns="http://www.w3.org/2000/svg">
<rect width="500" height="500" rx="250" fill="#333333"/>
<path d="M71.2465 280.12V283H39.1825V227.32H42.0625V280.12H71.2465ZM82.3075 227.32H85.1875V283H82.3075V227.32ZM117.225 283H103.401V227.32H113.961C121.513 227.32 127.209 228.632 131.049 231.256C134.953 233.88 136.905 237.464 136.905 242.008C136.905 247.448 134.505 251.384 129.705 253.816C133.225 255.032 135.849 256.856 137.577 259.288C139.305 261.656 140.169 264.408 140.169 267.544C140.169 272.152 138.249 275.896 134.409 278.776C130.633 281.592 124.905 283 117.225 283ZM117.225 280.12C122.857 280.12 127.593 279.096 131.433 277.048C135.337 275 137.289 271.832 137.289 267.544C137.289 265.56 136.553 263.416 135.081 261.112C133.609 258.744 131.337 257.016 128.265 255.928L123.273 254.2L127.881 251.8C129.481 250.968 130.889 249.72 132.105 248.056C133.385 246.328 134.025 244.312 134.025 242.008C134.025 237.976 132.105 235 128.265 233.08C124.425 231.16 119.657 230.2 113.961 230.2H106.281V280.12H117.225ZM178.294 255.064L191.35 283H188.182L174.742 254.2C174.87 254.136 175.414 253.88 176.374 253.432C177.398 252.92 178.102 252.568 178.486 252.376C178.87 252.12 179.51 251.704 180.406 251.128C181.302 250.552 181.974 250.008 182.422 249.496C182.87 248.92 183.35 248.28 183.862 247.576C184.438 246.808 184.854 245.976 185.11 245.08C185.366 244.12 185.494 243.096 185.494 242.008C185.494 237.976 183.574 235 179.734 233.08C175.894 231.16 171.126 230.2 165.43 230.2H157.75V283H154.87V227.32H165.43C172.982 227.32 178.678 228.632 182.518 231.256C186.422 233.88 188.374 237.464 188.374 242.008C188.374 244.952 187.382 247.576 185.398 249.88C183.414 252.12 181.046 253.848 178.294 255.064ZM209.458 280.12H240.754L221.074 233.752L200.146 283H197.074L221.074 226.36L245.074 283H209.458V280.12ZM279.45 255.064L292.506 283H289.338L275.898 254.2C276.026 254.136 276.57 253.88 277.53 253.432C278.554 252.92 279.258 252.568 279.642 252.376C280.026 252.12 280.666 251.704 281.562 251.128C282.458 250.552 283.13 250.008 283.578 249.496C284.026 248.92 284.506 248.28 285.018 247.576C285.594 246.808 286.01 245.976 286.266 245.08C286.522 244.12 286.65 243.096 286.65 242.008C286.65 237.976 284.73 235 280.89 233.08C277.05 231.16 272.282 230.2 266.586 230.2H258.906V283H256.026V227.32H266.586C274.138 227.32 279.834 228.632 283.674 231.256C287.578 233.88 289.53 237.464 289.53 242.008C289.53 244.952 288.538 247.576 286.554 249.88C284.57 252.12 282.202 253.848 279.45 255.064ZM305.526 227.32H308.406V283H305.526V227.32ZM331.708 280.12H363.004L343.324 233.752L322.396 283H319.324L343.324 226.36L367.324 283H331.708V280.12ZM376.74 277.432H383.076V283H376.74V277.432ZM399.745 227.32H402.625V283H399.745V227.32ZM448.871 230.296C446.695 229.592 444.007 229.24 440.807 229.24C437.607 229.24 434.919 229.592 432.743 230.296C430.567 230.936 428.551 232.184 426.695 234.04C424.903 235.832 423.559 238.488 422.663 242.008C421.767 245.464 421.319 249.848 421.319 255.16C421.319 260.472 421.767 264.888 422.663 268.408C423.559 271.864 424.903 274.52 426.695 276.376C428.551 278.168 430.567 279.416 432.743 280.12C434.919 280.76 437.607 281.08 440.807 281.08C444.007 281.08 446.695 280.76 448.871 280.12C451.047 279.416 453.031 278.168 454.823 276.376C456.679 274.52 458.055 271.864 458.951 268.408C459.847 264.888 460.295 260.472 460.295 255.16C460.295 249.848 459.847 245.464 458.951 242.008C458.055 238.488 456.679 235.832 454.823 234.04C453.031 232.184 451.047 230.936 448.871 230.296ZM457.991 277.144C454.535 281.688 448.807 283.96 440.807 283.96C432.807 283.96 427.079 281.688 423.623 277.144C420.167 272.6 418.439 265.272 418.439 255.16C418.439 245.048 420.167 237.72 423.623 233.176C427.079 228.632 432.807 226.36 440.807 226.36C448.807 226.36 454.535 228.632 457.991 233.176C461.447 237.72 463.175 245.048 463.175 255.16C463.175 265.272 461.447 272.6 457.991 277.144Z" fill="white"/>
</svg>
